<?xml version="1.0" encoding="UTF-8" standalone="no"?>
<!-- Created with Inkscape (http://www.inkscape.org/) -->
<svg
   xmlns:svg="http://www.w3.org/2000/svg"
   xmlns="http://www.w3.org/2000/svg"
   version="1.0"
   width="450"
   height="450"
   id="svg2">
  <defs
     id="defs5" />
  <path
     d="M 176.46685,224.3 C 176.46685,238.10712 165.27397,249.3 151.46685,249.3 C 137.65973,249.3 126.46685,238.10712 126.46685,224.3 C 126.46685,210.49288 137.65973,199.3 151.46685,199.3 C 165.27397,199.3 176.46685,210.49288 176.46685,224.3 z "
     style="opacity:1;fill:#fff;fill-opacity:1;stroke:#fff;stroke-width:1.5;stroke-linecap:round;stroke-linejoin:round;stroke-miterlimit:4;stroke-dasharray:none;stroke-dashoffset:0;stroke-opacity:1"
     id="path2163" />
  <path
     d="M 328.46685,224.3 C 328.46685,238.10712 317.27397,249.3 303.46685,249.3 C 289.65973,249.3 278.46685,238.10712 278.46685,224.3 C 278.46685,210.49288 289.65973,199.3 303.46685,199.3 C 317.27397,199.3 328.46685,210.49288 328.46685,224.3 z "
     style="opacity:1;fill:#fff;fill-opacity:1;stroke:#fff;stroke-width:1.5;stroke-linecap:round;stroke-linejoin:round;stroke-miterlimit:4;stroke-dasharray:none;stroke-dashoffset:0;stroke-opacity:1"
     id="path3160" />
  <path
     d="M 252.46685,224.3 C 252.46685,238.10712 241.27397,249.3 227.46685,249.3 C 213.65973,249.3 202.46685,238.10712 202.46685,224.3 C 202.46685,210.49288 213.65973,199.3 227.46685,199.3 C 241.27397,199.3 252.46685,210.49288 252.46685,224.3 z "
     style="opacity:1;fill:#fff;fill-opacity:1;stroke:#fff;stroke-width:1.5;stroke-linecap:round;stroke-linejoin:round;stroke-miterlimit:4;stroke-dasharray:none;stroke-dashoffset:0;stroke-opacity:1"
     id="path3162" />
</svg>
