<svg xmlns="http://www.w3.org/2000/svg" viewBox="0 0 654.48 249.84">
  <style>.brick{fill:#f0141e;}.copy{fill:#fff;}</style>
  <rect class="brick" width="654.48" height="249.84"/>
  <path class="copy" d="M560.67,52.5V11H445.1l-19,138.76L407.28,11H365.6l4.67,37c-4.81-9.49-21.87-37-59.42-37-.25,0-41.73,0-41.73,0L269,213.21,238.58,11l-54.58,0L152.57,220.48V11H100.34L81.51,128.67,63.16,11H10.9V238.77H52.06V129L70.78,238.77H92.66L111.12,129V238.77h79.34l4.8-35h31.94l4.8,35,77.89,0h.06v0h.1V164.83l9.55-1.39,19.76,75.38h40.29v0h.12L353.8,150.43c13.14-9.74,28-34.43,24-58h0c0,.3,24.48,146.54,24.48,146.54l47.92-.15L483,32.28V238.77h77.68v-41H523.79V145.56h36.88V104H523.79V52.5ZM200.1,167.61,211.4,70.2l11.73,97.41h-23Zm119.62-45a22.49,22.49,0,0,1-9.68,2.29V51.66h.2c3.22,0,27.25,1,27.25,36.24C337.5,106.33,329.32,118,319.72,122.64Zm323.86,75.13v41H567.79V10.92H608.6V197.77h35Z"/>
</svg>