<svg version="1" xmlns="http://www.w3.org/2000/svg" width="682.667" height="682.667" viewBox="0 0 512.000000 512.000000"><path d="M28.2 20.7c-4.4 2.1-10 8.9-10.7 12.7-.3 1.7-.4 104.2-.3 227.7l.3 224.6 2.7 3.6c1.6 1.9 4.3 4.6 6 5.9l3.3 2.3 225 .3c154.5.2 226.1 0 228.6-.8 4.7-1.3 11.6-8.7 12.4-13.2.3-1.8.4-104.3.3-227.8l-.3-224.5-2.3-3.3c-1.3-1.7-4-4.4-5.9-6l-3.6-2.7-226.1-.2c-207.2-.2-226.4-.1-229.4 1.4zm100.1 170c.3 1 1.5 7.3 2.8 14 1.3 6.8 2.6 12.3 3 12.3.3 0 1.9-6.3 3.4-14l2.8-14h15.8l-.3 29.5c-.3 27.4.2 35 1.6 25.7.3-2 2.4-15 4.6-28.9 2.2-13.8 4-25.4 4-25.7 0-.3 3.5-.6 7.9-.6h7.8l4.3 26.7c2.3 14.8 4.5 27.5 4.8 28.3.4.8.8-11 1-26.3l.2-27.7h22.8l3.3 3.8c1.9 2.1 4 4.7 4.7 5.8 1.2 1.8 1.2 1.7.8-.6-.3-1.4-.8-4.2-1.2-6.3l-.6-3.8 6.3.3 6.3.3 1.7 9.5c.9 5.2 2.2 12.8 2.9 16.7 1.2 7.2 3 9.9 3 4.5 0-1.5 1.1-9 2.3-16.7l2.3-14 17.7-.3 17.7-.2v12.9l-5.2.3-5.3.3v15l5 .5 5 .5v11l-5 .5-5 .5-.3 7.7-.3 7.8H282v13h-22v-33.2c0-18.2-.3-32.8-.7-32.4-.4.4-2.4 11.1-4.5 23.9-2.1 12.8-4.5 27.4-5.4 32.4l-1.6 9.3h-14.5l-3.2-19.8c-1.7-10.8-3.1-20.5-3.1-21.4 0-3.4-1.9-2.8-2.9.9-.6 2.1-2.4 5.9-4 8.5l-3 4.7 4.5 13.3c2.4 7.3 4.4 13.3 4.4 13.5 0 .2-2.8.3-6.3.3h-6.3l-3.7-11.5c-2.1-6.3-4.1-11.5-4.5-11.5-.4 0-.6 5.2-.4 11.5l.3 11.5h-23.9l-1.2-3.5c-1.1-3.4-1.3-3.5-6-3.5s-4.9.1-6 3.5l-1.2 3.5h-24l.3-12c.4-11.7-.3-15.3-1.6-8.8-.4 1.8-1.6 7.2-2.7 12-1.9 8.5-2.1 8.8-4.7 8.8s-2.9-.4-4-5.8c-3.7-16.7-4.4-19.3-4.8-18.8-.3.3-.5 5.9-.4 12.6l.2 12.1-6.3-.3-6.3-.3-.3-33.5c-.1-18.4 0-34.1.3-34.7.3-.9 2.8-1.3 7.9-1.3 6.3 0 7.5.3 7.9 1.7zM299 217.5V246h11.1l-.3 6.2-.3 6.3-11.2.3-11.3.3V189h12v28.5zm55-26c0 1.9-.5 2.5-2.3 2.5-3.8 0-4.7 1.9-4.7 9.6 0 9.9-.8 13-4.2 16.3l-2.9 2.8 2.5 1.6c3.2 2.1 4.6 7.2 4.6 16.4 0 7.6 1.3 10.3 5.1 10.3 1.4 0 1.9.7 1.9 2.6 0 2.5-.2 2.6-3.7 2-6.4-1.1-7.9-3.9-8.5-15.4-.7-11-1.7-13.9-5.3-14.8-3.7-.9-3.4-4.8.4-6.4 3.8-1.6 4.2-2.6 4.8-14.8.5-8.9.9-10.6 2.9-12.7 1.6-1.8 3.4-2.5 5.9-2.5 3.1 0 3.5.3 3.5 2.5zm33-.5c2.4 2.4 2.8 4.1 3.3 15 .6 10.3 1 11.5 4.8 13 3.8 1.6 4.1 5.5.4 6.4-3.6.9-4.6 3.8-5.3 14.8-.6 11.5-2.1 14.3-8.4 15.4-3.5.6-3.8.4-3.8-1.8 0-1.8.7-2.6 3.3-3.3l3.2-1 .6-9.6c.7-9.8 2.5-15.1 5.5-16.3 1.5-.6 1.3-1.1-1.3-3.6-3.5-3.4-4.3-6.5-4.3-16.4 0-7.7-.9-9.6-4.7-9.6-1.8 0-2.3-.6-2.3-2.5 0-2.2.4-2.5 3.5-2.5 2.2 0 4.3.8 5.5 2zM139.5 303.2c4.4 10 8.2 18.5 8.3 19 .2.4-.8.8-2.1.8-2.1 0-2.9-.9-4.8-5.5l-2.3-5.5H121.9l-2.4 5.5c-1.8 4-3 5.5-4.5 5.5-1.1 0-2-.4-2-.8 0-.5 3.1-8.3 6.8-17.3 3.8-9 7.1-17.2 7.5-18.2.3-.9 1.4-1.7 2.4-1.7 1.4 0 3.7 4.4 9.8 18.2zm33.3-14.7c3.6 3 4.7 6.6 3.2 11.1-1.5 4.3-4 5.7-11.5 6.4l-6 .5-.3 8.2c-.3 7.5-.5 8.3-2.2 8.3-1.9 0-2-.8-2-18.5V286h7.9c7 0 8.3.3 10.9 2.5zm13.2 16c0 17.8-.1 18.5-2 18.5s-2-.7-2-18.5.1-18.5 2-18.5 2 .7 2 18.5zm45-16.5c0 1.8-.7 2-8 2h-8v12h8c7.3 0 8 .2 8 2 0 1.7-.8 1.9-7.7 2.2l-7.8.3-.3 5.7-.3 5.8h8.6c8.4 0 8.5 0 8.5 2.5v2.5h-21v-37h10c9.3 0 10 .1 10 2zm66 16.5c0 17.8-.1 18.5-2 18.5s-2-.7-2-18.5.1-18.5 2-18.5 2 .7 2 18.5zm53.4-5.2c1.1.8 1.5 1.9 1 3-.7 1.9-2 2.2-2.9.7-.3-.6-1.7-1-3.1-1-4 0-6.4 5.1-6.4 13.7 0 6.6-.2 7.3-2 7.3-1.9 0-2-.7-2-12s.1-12 2-12c1.3 0 2 .7 2 2 0 2.7 1.2 2.5 4-.5 2.6-2.8 4.7-3.1 7.4-1.2zm20.5.1c3 1.6 5.1 5.3 5.1 9.1 0 2.5-.1 2.5-8.5 2.5-7.6 0-8.5.2-8.5 1.8 0 1 1.1 2.9 2.4 4.1 2 1.9 3.3 2.2 6.8 1.9 2.4-.3 5.1-.8 6.1-1.2 1.3-.6 1.7-.4 1.7 1.1 0 2.5-3.9 4.3-9.5 4.3-11.3 0-16.5-14.4-7.9-22 3.9-3.3 7.8-3.9 12.3-1.6zm26.5-.1c1.1.8 1.5 1.9 1 3-.7 1.9-2 2.2-2.9.7-.3-.6-1.7-1-3.1-1-4 0-6.4 5.1-6.4 13.7 0 6.6-.2 7.3-2 7.3-1.9 0-2-.7-2-12s.1-12 2-12c1.3 0 2 .7 2 2 0 2.7 1.2 2.5 4-.5 2.6-2.8 4.7-3.1 7.4-1.2zM244 303.2l3.4 4.1 3.6-4.2c2.7-3.1 4.3-4.2 6-3.9 2.2.3 2 .6-2.3 5.8l-4.5 5.5 5.5 6.2c5.3 6.1 5.4 6.3 2.8 6.3-1.9 0-3.9-1.3-6.9-4.7l-4.2-4.6-3.8 4.6c-2.7 3.3-4.6 4.7-6.3 4.7-2.8 0-2.9.3 4.4-8.7l3.2-4-4.5-5c-2.4-2.8-4.4-5.4-4.4-5.7 0-.3 1-.6 2.3-.6 1.6 0 3.5 1.4 5.7 4.2zm36.3-3.1c4.1 2.1 5.7 5.1 5.7 10.7 0 4.8-.4 5.8-3.5 8.9-3.2 3.2-3.9 3.5-8.5 3.1l-5-.3v6.2c0 5.6-.2 6.3-2 6.3-1.9 0-2-.7-2-18v-18h6.6c3.6 0 7.5.5 8.7 1.1zm43.3.8c6.6 4 6.9 13.7.7 19.1-3.3 2.9-4.1 3.2-8.9 2.8-6-.5-8.9-2.5-11.1-7.6-3.3-7.8 2.6-16.2 11.5-16.2 2.9 0 5.9.8 7.8 1.9z"/><path d="M205 212.1c0 11.9.7 13 5 8.4 4.8-5.1 3-17.2-2.9-18.8-2-.5-2.1-.2-2.1 10.4zM172.2 227.4c-.7 5.2-1.2 10-1.2 10.5 0 .6 1.4 1.1 3.1 1.1 3.1 0 3.1-.1 2.6-3.8-.4-2-.9-6.7-1.3-10.5-.4-3.7-1-6.7-1.4-6.7-.4 0-1.2 4.2-1.8 9.4zM127 299.2c-1.4 3.5-2.6 6.6-2.8 7-.2.5 2.4.8 5.7.8 3.4 0 6.1-.2 6.1-.4 0-.7-5.9-13.6-6.2-13.6-.2 0-1.4 2.8-2.8 6.2zM158 295.9v6.1h5c7.5 0 11.2-4.6 7.6-9.5-.9-1.3-3-2-7-2.3l-5.6-.4v6.1zM361 304c-3.8 3.8-2.7 5 4.5 5 7 0 7.8-.7 4.9-4.8-1.9-2.8-6.7-2.9-9.4-.2zM269 310.4c0 8.2 0 8.4 2.7 9 7.1 1.8 12.9-6.6 9.3-13.4-1-2-5.9-4-9.6-4-2.3 0-2.4.2-2.4 8.4zM312.4 303.4c-7.8 3.4-5.1 15.6 3.5 15.6 4.6 0 6.8-1.5 8.1-5.4 1.5-4.6-.7-8.9-5.1-10.5-1.8-.6-3.2-1.1-3.3-1.1-.1.1-1.5.7-3.2 1.4z"/></svg>